<?xml version="1.0" encoding="utf-8"?>
<!-- Generator: Adobe Illustrator 23.0.3, SVG Export Plug-In . SVG Version: 6.00 Build 0)  -->
<svg version="1.1" id="Layer_1" xmlns="http://www.w3.org/2000/svg" xmlns:xlink="http://www.w3.org/1999/xlink" x="0px" y="0px"
	 viewBox="0 0 190 190" style="enable-background:new 0 0 190 190;" xml:space="preserve">
<style type="text/css">
	.st0{fill:#333333;}
	.st1{fill:#DEDEDD;}
	.st2{fill:#B2B2B2;}
	.st3{fill:#D1D1D1;}
	.st4{fill:#F2F2F2;}
	.st5{fill:#D8D8D7;}
	.st6{fill:#FFFFFF;}
</style>
<g>
	<path class="st0" d="M182.3,88.8c-0.4,0-0.8,0-1.2,0.1l-31.7-58.7c0.6-1.1,0.9-2.3,0.9-3.5c0-4.2-3.4-7.7-7.7-7.7
		c-2.2,0-4.1,0.9-5.5,2.4L73.8,8.8C73.4,5,70.1,2,66.2,2c-4.2,0-7.7,3.4-7.7,7.7c0,1.3,0.3,2.5,0.9,3.6L10.1,83.9
		c-0.6-0.2-1.3-0.3-2-0.3c-4.2,0-7.7,3.4-7.7,7.7c0,4.2,3.4,7.7,7.7,7.7l0.3,0l26.7,65.7c-0.4,1-0.7,2-0.7,3.2
		c0,4.2,3.4,7.7,7.7,7.7c2.2,0,4.2-0.9,5.6-2.4l79.8,7.8c0.8,3.3,3.8,5.8,7.4,5.8c4.2,0,7.7-3.4,7.7-7.7c0-1.9-0.7-3.6-1.8-5
		L181,104c0.4,0.1,0.8,0.1,1.3,0.1c4.2,0,7.7-3.4,7.7-7.7C190,92.2,186.6,88.8,182.3,88.8z M136.5,31.4c0.9,1.2,2.1,2.1,3.6,2.6
		L128,125.3c-0.8,0.2-1.5,0.4-2.1,0.8L59.4,68.4c0.2-0.6,0.3-1.3,0.3-2c0-0.5-0.1-1-0.1-1.5L136.5,31.4z M174.9,98.6l-40.9,28
		c-0.3-0.2-0.6-0.4-1-0.6l12.2-92.2l0.1,0l31.2,57.6c-1.2,1.4-1.9,3.1-1.9,5.1C174.7,97.2,174.8,97.9,174.9,98.6z M50.9,58.8
		c-3.7,0.5-6.5,3.7-6.5,7.6l0,0.5L17,83l42.4-60.8L50.9,58.8z M53.6,73.9c1-0.2,2-0.7,2.8-1.2l66,57.4c-0.3,0.9-0.5,1.8-0.5,2.8
		l0,0.4l-73.6,30.3c-1.1-1.6-2.8-2.8-4.7-3.2L53.6,73.9z M123.9,138c1,1.1,2.4,2,3.9,2.3l3.6,31.9c-1.5,0.8-2.8,2-3.5,3.6l-77.4-7.6
		L123.9,138z M133,139.7c2.5-1.3,4.3-3.9,4.3-6.9c0-0.7-0.1-1.3-0.3-1.9l37.4-25.7L136.6,171L133,139.7z M134.9,26.4l-78,34
		c-0.3-0.2-0.6-0.4-0.9-0.6l9.9-42.5l0.3,0c2.7,0,5.1-1.4,6.4-3.5l62.3,12.4L134.9,26.4z M15.8,91.3c0-0.5-0.1-1-0.1-1.4l30.8-18.2
		c0.6,0.6,1.3,1.2,2.1,1.6l-10,86.2L13.2,97C14.8,95.6,15.8,93.6,15.8,91.3z"/>
	<path class="st1" d="M145.4,33.8l31.2,57.6c-1.2,1.4-1.9,3.1-1.9,5.1c0,0.7,0.1,1.4,0.3,2.1l-40.9,28c-0.3-0.2-0.6-0.4-1-0.6
		l12.2-92.2L145.4,33.8"/>
	<path class="st2" d="M133,139.7c2.5-1.3,4.3-3.9,4.3-6.9c0-0.7-0.1-1.3-0.3-1.9l37.4-25.7L136.6,171L133,139.7z"/>
	<path class="st3" d="M123.9,138c1,1.1,2.4,2,3.9,2.3l3.6,31.9c-1.5,0.8-2.8,2-3.5,3.6l-77.4-7.6L123.9,138z"/>
	<path class="st4" d="M53.6,73.9c1-0.2,2-0.7,2.8-1.2l66,57.4c-0.3,0.9-0.5,1.8-0.5,2.8l0,0.4l-73.6,30.3c-1.1-1.6-2.8-2.8-4.7-3.2
		L53.6,73.9z"/>
	<path class="st5" d="M15.8,91.3c0-0.5-0.1-1-0.1-1.4l30.8-18.2c0.6,0.6,1.3,1.2,2.1,1.6l-10,86.2L13.2,97
		C14.8,95.6,15.8,93.6,15.8,91.3z"/>
	<path class="st2" d="M50.9,58.8c-3.7,0.5-6.5,3.7-6.5,7.6l0,0.5L17,83l42.4-60.8L50.9,58.8z"/>
	<path class="st3" d="M134.9,26.4l-78,34c-0.3-0.2-0.6-0.4-0.9-0.6l9.9-42.5l0.3,0c2.7,0,5.1-1.4,6.4-3.5l62.3,12.4L134.9,26.4z"/>
	<path class="st6" d="M136.5,31.4c0.9,1.2,2.1,2.1,3.6,2.6L128,125.3c-0.8,0.2-1.5,0.4-2.1,0.8L59.4,68.4c0.2-0.6,0.3-1.3,0.3-2
		c0-0.5-0.1-1-0.1-1.5L136.5,31.4z"/>
</g>
</svg>
